<svg width="49" height="48" viewBox="0 0 49 48" fill="none" xmlns="http://www.w3.org/2000/svg">
<path d="M8.40401 12.4292C9.62329 12.4292 10.7927 12.939 11.6548 13.8466C12.517 14.7541 13.0013 15.985 13.0013 17.2685V30.5401C13.0013 31.1751 12.8824 31.8038 12.6512 32.3903C12.42 32.9768 12.0812 33.5095 11.6542 33.958C11.2271 34.4065 10.7202 34.7619 10.1625 35.0039C9.60482 35.2458 9.00723 35.3696 8.40401 35.3681C7.80128 35.3696 7.20422 35.2458 6.6471 35.0037C6.08999 34.7616 5.58381 34.406 5.15762 33.9573C4.73143 33.5087 4.39361 32.9759 4.16361 32.3895C3.93361 31.803 3.81595 31.1745 3.81735 30.5401V17.2685C3.81595 16.6335 3.93354 16.0045 4.16341 15.4174C4.39329 14.8304 4.73092 14.2968 5.15697 13.8473C5.58302 13.3978 6.08911 13.0411 6.64629 12.7978C7.20347 12.5545 7.80078 12.4292 8.40401 12.4292Z" fill="#E83C77"/>
<path d="M8.40399 0.0112827C9.61773 0.017208 10.78 0.528132 11.6373 1.43261C12.4945 2.33709 12.9772 3.56171 12.98 4.83934C12.9772 6.12086 12.4916 7.34887 11.6297 8.25399C10.7678 9.1591 9.60011 9.66744 8.38267 9.66743C7.16621 9.66743 5.99958 9.15874 5.13941 8.2533C4.27924 7.34786 3.79602 6.11982 3.79602 4.83934C3.79601 4.20342 3.91532 3.57378 4.14716 2.98654C4.37899 2.39931 4.71875 1.86605 5.14693 1.41743C5.5751 0.968808 6.08326 0.613645 6.64221 0.372337C7.20115 0.131028 7.79987 0.0083249 8.40399 0.0112827Z" fill="#E83C77"/>
<path d="M5.08668 38.3325H43.9133C45.1326 38.3325 46.302 38.8424 47.1642 39.7499C48.0263 40.6575 48.5107 41.8884 48.5107 43.1718C48.5079 44.4533 48.0222 45.6813 47.1604 46.5865C46.2985 47.4916 45.1308 47.9999 43.9133 47.9999H5.08668C3.87109 47.9969 2.70607 47.4873 1.84651 46.5825C0.986952 45.6777 0.50281 44.4514 0.499992 43.1718C0.499989 41.8903 0.982904 40.6611 1.84277 39.7539C2.70263 38.8467 3.86924 38.3355 5.08668 38.3325Z" fill="#E83C77"/>
<path d="M45.1827 20.5136V30.5627C45.1258 31.8044 44.6171 32.9754 43.7622 33.833C42.9073 34.6906 41.7716 35.169 40.5907 35.169C39.4097 35.169 38.274 34.6906 37.4191 33.833C36.5641 32.9754 36.0555 31.8044 35.9986 30.5627V18.515C35.9986 17.2345 35.5154 16.0065 34.6552 15.101C33.7951 14.1956 32.6284 13.6869 31.412 13.6869C30.1955 13.6869 29.0289 14.1956 28.1687 15.101C27.3086 16.0065 26.8253 17.2345 26.8253 18.515V30.5627C26.7685 31.8044 26.2598 32.9754 25.4049 33.833C24.55 34.6906 23.4143 35.169 22.2333 35.169C21.0523 35.169 19.9167 34.6906 19.0618 33.833C18.2068 32.9754 17.6982 31.8044 17.6413 30.5627V20.5136V18.7508C17.6031 16.8486 17.9213 14.9571 18.5777 13.1844C19.2341 11.4116 20.2159 9.79239 21.467 8.41918C22.7181 7.04596 24.2139 5.94564 25.869 5.1811C27.5242 4.41656 29.3062 4.00278 31.1133 3.96338H31.6893C33.4973 3.99987 35.2808 4.41116 36.9377 5.1737C38.5946 5.93624 40.0924 7.03507 41.3456 8.40739C42.5988 9.77971 43.5827 11.3986 44.2411 13.1714C44.8995 14.9443 45.2194 16.8364 45.1827 18.7395V20.5023V20.5136Z" fill="#E83C77"/>
</svg>
